<?xml version="1.0" standalone="no"?>
<!DOCTYPE svg PUBLIC "-//W3C//DTD SVG 20010904//EN"
 "http://www.w3.org/TR/2001/REC-SVG-20010904/DTD/svg10.dtd">
<svg version="1.0" xmlns="http://www.w3.org/2000/svg"
 width="1667.000000pt" height="1667.000000pt" viewBox="0 0 1667.000000 1667.000000"
 preserveAspectRatio="xMidYMid meet">
<metadata>
Created by potrace 1.14, written by Peter Selinger 2001-2017
</metadata>
<g transform="translate(0.000000,1667.000000) scale(0.100000,-0.100000)"
fill="#000000" stroke="none">
<path d="M2500 9500 l0 -1170 1165 0 1165 0 0 -1165 0 -1165 1170 0 1170 0 0
1165 0 1165 1165 0 1165 0 0 -1165 0 -1165 1168 2 1167 3 3 1162 2 1163 1163
2 1162 3 3 1168 2 1167 -1170 0 -1170 0 0 -1165 0 -1165 -1165 0 -1165 0 0
1165 0 1165 -1170 0 -1170 0 0 -1165 0 -1165 -1160 0 -1160 0 0 1165 0 1165
-1170 0 -1170 0 0 -1170z"/>
</g>
</svg>
